<svg version="1.1" id="Layer_1" xmlns="http://www.w3.org/2000/svg" xmlns:xlink="http://www.w3.org/1999/xlink" x="0px" y="0px"
	 width="100%" viewBox="0 0 250 250" enable-background="new 0 0 250 250" xml:space="preserve">
<path fill="#000000" opacity="1.000000" stroke="none" 
	d="
M147.000000,251.000000 
	C98.000000,251.000000 49.500008,251.000000 1.000004,251.000000 
	C1.000000,209.333344 1.000000,167.666672 1.000000,126.000015 
	C1.000000,84.333351 1.000000,42.666687 1.000000,1.000018 
	C84.333321,1.000012 167.666641,1.000012 250.999969,1.000006 
	C250.999969,84.333313 250.999969,167.666626 250.999985,250.999969 
	C216.500000,251.000000 182.000000,251.000000 147.000000,251.000000 
M25.908712,124.299583 
	C25.605818,125.244835 25.039637,126.189682 25.038198,127.135399 
	C24.991846,157.590012 24.989738,188.044724 25.039526,218.499344 
	C25.041418,219.656403 25.624151,220.812515 26.880182,222.024139 
	C57.345810,222.024139 87.811440,222.024139 118.798492,222.024139 
	C117.879082,220.678177 117.362198,219.651962 116.605171,218.853394 
	C103.702782,205.242706 90.816109,191.616608 77.830093,178.085907 
	C68.182976,168.034149 58.390594,158.121902 48.689877,148.121368 
	C47.891087,147.297897 47.399181,146.175446 46.595665,145.358078 
	C39.891853,138.538727 33.148380,131.758362 25.908712,124.299583 
M220.282883,125.762779 
	C220.854843,124.607384 221.922913,123.453468 221.926361,122.296394 
	C222.017227,91.732430 222.007874,61.168133 221.960800,30.603975 
	C221.958984,29.425142 221.413651,28.247149 220.169724,27.031078 
	C189.622147,27.031078 159.074585,27.031078 127.715088,27.031078 
	C128.620270,28.616947 128.886169,29.384581 129.393219,29.926689 
	C139.924011,41.185829 150.413727,52.484665 161.054947,63.638885 
	C170.915070,73.974358 180.944962,84.147835 190.891632,94.400864 
	C191.467682,94.994659 191.935806,95.692703 192.507584,96.291199 
	C201.652817,105.863548 210.806763,115.427589 220.282883,125.762779 
M26.207708,76.718796 
	C27.147514,78.064323 27.944340,79.542793 29.051098,80.733078 
	C34.801373,86.917305 40.628693,93.029915 46.432850,99.163994 
	C58.269562,111.673546 70.103477,124.185730 81.948128,136.687759 
	C94.139145,149.555389 106.281563,162.469803 118.557457,175.256012 
	C128.894730,186.022980 139.412186,196.616791 149.799652,207.335938 
	C151.397507,208.984802 152.668640,210.945129 154.188095,212.676071 
	C159.030029,218.192001 163.672623,222.892502 172.458359,222.252670 
	C185.862549,221.276459 199.390289,222.000443 212.865570,221.993820 
	C215.617798,221.992477 218.369995,221.952591 221.873764,221.515167 
	C221.915192,206.496750 221.972198,191.478302 221.955368,176.459946 
	C221.954468,175.645828 221.335495,174.832413 220.797424,173.371201 
	C216.960510,169.078598 213.219376,164.695679 209.270264,160.508926 
	C191.395966,141.559113 173.471085,122.656944 155.547913,103.753288 
	C144.615173,92.222488 133.648331,80.724030 122.704277,69.203941 
	C110.235779,56.079174 97.840996,42.882961 85.225784,29.900862 
	C83.716743,28.347937 81.038055,27.152708 78.885506,27.126907 
	C61.238514,26.915398 43.587730,27.020491 25.140648,27.388636 
	C25.093981,42.801117 25.031769,58.213612 25.044151,73.626045 
	C25.044807,74.441315 25.676655,75.256081 26.207708,76.718796 
z"/>
<path fill="#1D1D1D" opacity="1.000000" stroke="none" 
	d="
M221.122208,221.930466 
	C218.369995,221.952591 215.617798,221.992477 212.865570,221.993820 
	C199.390289,222.000443 185.862549,221.276459 172.458359,222.252670 
	C163.672623,222.892502 159.030029,218.192001 154.188095,212.676071 
	C152.668640,210.945129 151.397507,208.984802 149.799652,207.335938 
	C139.412186,196.616791 128.894730,186.022980 118.557457,175.256012 
	C106.281563,162.469803 94.139145,149.555389 81.948128,136.687759 
	C70.103477,124.185730 58.269562,111.673546 46.432850,99.163994 
	C40.628693,93.029915 34.801373,86.917305 29.051098,80.733078 
	C27.944340,79.542793 27.147514,78.064323 26.170971,75.925018 
	C26.068855,59.097317 26.003477,43.063385 25.938099,27.029451 
	C43.587730,27.020491 61.238514,26.915398 78.885506,27.126907 
	C81.038055,27.152708 83.716743,28.347937 85.225784,29.900862 
	C97.840996,42.882961 110.235779,56.079174 122.704277,69.203941 
	C133.648331,80.724030 144.615173,92.222488 155.547913,103.753288 
	C173.471085,122.656944 191.395966,141.559113 209.270264,160.508926 
	C213.219376,164.695679 216.960510,169.078598 220.900909,174.162369 
	C221.043671,190.612518 221.082932,206.271484 221.122208,221.930466 
z"/>
<path fill="#1D1D1D" opacity="1.000000" stroke="none" 
	d="
M219.958725,124.993523 
	C210.806763,115.427589 201.652817,105.863548 192.507584,96.291199 
	C191.935806,95.692703 191.467682,94.994659 190.891632,94.400864 
	C180.944962,84.147835 170.915070,73.974358 161.054947,63.638885 
	C150.413727,52.484665 139.924011,41.185829 129.393219,29.926689 
	C128.886169,29.384581 128.620270,28.616947 127.715088,27.031078 
	C159.074585,27.031078 189.622147,27.031078 220.595917,27.511789 
	C221.015945,58.481270 221.027847,88.970078 220.958893,119.458710 
	C220.954712,121.304390 220.307007,123.148621 219.958725,124.993523 
z"/>
<path fill="#1E1E1E" opacity="1.000000" stroke="none" 
	d="
M26.416882,124.966225 
	C33.148380,131.758362 39.891853,138.538727 46.595665,145.358078 
	C47.399181,146.175446 47.891087,147.297897 48.689877,148.121368 
	C58.390594,158.121902 68.182976,168.034149 77.830093,178.085907 
	C90.816109,191.616608 103.702782,205.242706 116.605171,218.853394 
	C117.362198,219.651962 117.879082,220.678177 118.798492,222.024139 
	C87.811440,222.024139 57.345810,222.024139 26.501392,221.538086 
	C26.130159,202.127289 26.106339,183.202469 26.156065,164.277847 
	C26.190498,151.173828 26.326347,138.070084 26.416882,124.966225 
z"/>
<path fill="#C3C0BC" opacity="1.000000" stroke="none" 
	d="
M220.120804,125.378151 
	C220.307007,123.148621 220.954712,121.304390 220.958893,119.458710 
	C221.027847,88.970078 221.015945,58.481270 221.071854,27.530632 
	C221.413651,28.247149 221.958984,29.425142 221.960800,30.603975 
	C222.007874,61.168133 222.017227,91.732430 221.926361,122.296394 
	C221.922913,123.453468 220.854843,124.607384 220.120804,125.378151 
z"/>
<path fill="#FFFFFF" opacity="1.000000" stroke="none" 
	d="
M26.162796,124.632904 
	C26.326347,138.070084 26.190498,151.173828 26.156065,164.277847 
	C26.106339,183.202469 26.130159,202.127289 26.029409,221.510544 
	C25.624151,220.812515 25.041418,219.656403 25.039526,218.499344 
	C24.989738,188.044724 24.991846,157.590012 25.038198,127.135399 
	C25.039637,126.189682 25.605818,125.244835 26.162796,124.632904 
z"/>
<path fill="#FFFFFF" opacity="1.000000" stroke="none" 
	d="
M25.539373,27.209044 
	C26.003477,43.063385 26.068855,59.097317 26.074446,75.601166 
	C25.676655,75.256081 25.044807,74.441315 25.044151,73.626045 
	C25.031769,58.213612 25.093981,42.801117 25.539373,27.209044 
z"/>
<path fill="#C2C0BB" opacity="1.000000" stroke="none" 
	d="
M221.497986,221.722809 
	C221.082932,206.271484 221.043671,190.612518 221.004318,174.486115 
	C221.335495,174.832413 221.954468,175.645828 221.955368,176.459946 
	C221.972198,191.478302 221.915192,206.496750 221.497986,221.722809 
z"/>
</svg>